<?xml version="1.0" encoding="UTF-8"?>
<svg xmlns="http://www.w3.org/2000/svg" xmlns:xlink="http://www.w3.org/1999/xlink" viewBox="0 0 144 144" width="144px" height="144px">
<g id="surface24771147">
<path style=" stroke:none;fill-rule:nonzero;fill:rgb(100%,100%,100%);fill-opacity:1;" d="M 18 48 C 8.699219 59.101562 0 70.800781 0 81.300781 C 0 87.300781 5.101562 96 17.699219 96 C 24.601562 96 31.199219 93.300781 36.601562 91.199219 C 45.601562 87.601562 143.699219 45.898438 143.699219 45.898438 C 144.601562 45.300781 144.601562 44.699219 143.398438 45 C 142.800781 45 36.601562 73.199219 36.601562 73.199219 C 34.5 73.800781 32.398438 74.101562 30.300781 74.101562 C 21 74.101562 15 69.601562 15 60 C 14.699219 56.101562 15.300781 53.398438 18 48 Z M 18 48 "/>
</g>
</svg>
